<?xml version="1.0" encoding="UTF-8"?>
<svg version="1.1" xmlns="http://www.w3.org/2000/svg" width="512" height="512">
<path d="M0 0 C1.06650457 -0.00511616 2.13300914 -0.01023233 3.23183203 -0.01550353 C19.27255372 0.09139192 32.7889589 5.75947941 44.46618652 16.82504272 C53.68506155 26.56306942 58.87271512 37.59256775 58.88667679 51.04044437 C58.88872942 51.71459116 58.89078206 52.38873795 58.89289689 53.08331344 C58.89855993 55.3466119 58.8971105 57.60984938 58.89569092 59.87315369 C58.89827496 61.51058791 58.90128823 63.1480215 58.90469432 64.78545421 C58.91276312 69.28881964 58.91455383 73.79216913 58.91529179 78.29554093 C58.91714258 83.15121966 58.9246901 88.00689013 58.931427 92.86256409 C58.94501054 103.48256862 58.95103523 114.10256937 58.95543766 124.72258115 C58.95820035 131.35457963 58.96243778 137.98657665 58.96694183 144.61857414 C58.97913509 162.98244542 58.98943393 181.34631553 58.99281693 199.71019077 C58.99303649 200.8856057 58.99325606 202.06102063 58.99348228 203.27205419 C58.99370055 204.45027748 58.99391883 205.62850077 58.99414372 206.84242779 C58.99458719 209.22994332 58.99503375 211.61745884 58.9954834 214.00497437 C58.99570483 215.18926381 58.99592626 216.37355326 58.9961544 217.59373026 C59.00010132 236.77797369 59.01755189 255.9621791 59.04084292 275.14640785 C59.06456524 294.84500177 59.0770192 314.54357662 59.07818484 334.24218506 C59.07910117 345.30117769 59.08484269 356.36012082 59.10300446 367.41909981 C59.11841739 376.83746401 59.12351889 386.25576341 59.11526635 395.67413784 C59.11136394 400.47761511 59.11226947 405.28096191 59.1263237 410.08442307 C59.13908714 414.48708374 59.13784369 418.88951625 59.12573299 423.29217672 C59.12378021 424.87971562 59.12683496 426.46727083 59.13557735 428.05478687 C59.22454551 445.31143453 55.94806325 458.30026828 44.00915527 471.14535522 C29.68392245 484.47750431 11.76299186 487.14301402 -6.88928223 488.79598999 C-8.4577256 488.93901234 -10.02612546 489.08251239 -11.59448528 489.22644806 C-15.85490197 489.61609897 -20.11589287 489.99910702 -24.37701201 490.38098836 C-28.91620176 490.78902067 -33.45480861 491.20343978 -37.9934845 491.61714172 C-46.73083265 492.41258254 -55.46866932 493.20251748 -64.20671409 493.99026531 C-75.24078467 494.98511083 -86.27439879 495.98498022 -97.3079834 496.98519897 C-98.29927809 497.07505939 -99.29057277 497.16491981 -100.3119067 497.25750327 C-101.30216008 497.34727006 -102.29241346 497.43703685 -103.31267452 497.52952385 C-104.30186927 497.6191943 -105.29106402 497.70886475 -106.31023437 497.80125248 C-108.30326283 497.98192589 -110.29629016 498.16261178 -112.28931636 498.34331024 C-118.24578336 498.88330328 -124.20231408 499.4225873 -130.15888828 499.96139657 C-151.82406172 501.92150544 -173.48661796 503.90423742 -195.1428566 505.96088982 C-198.66042175 506.29471433 -202.17812743 506.62701255 -205.69589233 506.95872498 C-207.9003302 507.1666805 -210.10476748 507.37464236 -212.3092041 507.58261108 C-213.35463945 507.68121083 -214.40007481 507.77981058 -215.47719002 507.8813982 C-220.44764113 508.35109135 -225.41757767 508.82531237 -230.38659668 509.30993652 C-297.81232329 515.88028074 -297.81232329 515.88028074 -317.93615723 500.13754272 C-327.89935646 491.51068914 -335.08174591 481.54240647 -337.24475098 468.24301147 C-337.33625081 465.97769325 -337.37382602 463.70994942 -337.37617874 461.44278526 C-337.37823138 460.76833888 -337.38028401 460.09389249 -337.38239884 459.39900833 C-337.38806189 457.13470056 -337.38661245 454.87045374 -337.38519287 452.60614014 C-337.38777691 450.96799322 -337.39079018 449.32984694 -337.39419627 447.69170153 C-337.40226505 443.18640549 -337.40405578 438.68112538 -337.40479374 434.17582297 C-337.40664452 429.31811836 -337.41419201 424.46042201 -337.42092896 419.60272217 C-337.43451218 408.97865268 -337.44053705 398.35458696 -337.44493961 387.73051023 C-337.44770219 381.09650944 -337.45193958 374.4625101 -337.45644379 367.82851028 C-337.4686367 349.46034779 -337.4789358 331.09218646 -337.48231888 312.72402 C-337.48253844 311.54835351 -337.48275801 310.37268702 -337.48298423 309.16139428 C-337.48320251 307.98291553 -337.48342079 306.80443678 -337.48364568 305.59024656 C-337.48408914 303.20220335 -337.48453571 300.81416015 -337.48498535 298.42611694 C-337.48520678 297.24156519 -337.48542821 296.05701343 -337.48565635 294.83656617 C-337.48960385 275.64518066 -337.50705632 256.45383314 -337.53034487 237.2624623 C-337.55406273 217.55822315 -337.56652094 197.85400306 -337.5676868 178.1497494 C-337.56860334 167.08687625 -337.57435041 156.02405259 -337.59250641 144.96119308 C-337.60791327 135.54023844 -337.6130244 126.11934858 -337.60476831 116.69838373 C-337.60086383 111.89300513 -337.60178156 107.08775694 -337.61582565 102.28239441 C-337.62857658 97.87916921 -337.62735657 93.47617227 -337.61523494 89.07294734 C-337.61328001 87.48408034 -337.61634694 85.8951971 -337.6250793 84.3063529 C-337.71084325 67.64011066 -334.4783706 53.92460126 -322.75646973 41.56332397 C-309.53367654 29.34817755 -293.21361897 25.6169728 -275.85302734 24.05340576 C-274.19551335 23.89770927 -274.19551335 23.89770927 -272.50451422 23.7388674 C-268.82398 23.39449714 -265.14279046 23.05774547 -261.46154785 22.72103882 C-258.81259679 22.47486634 -256.16368638 22.22828612 -253.51481628 21.98124695 C-247.07626833 21.38184065 -240.63718555 20.78838475 -234.1978631 20.19736217 C-228.9526712 19.71593359 -223.70763147 19.23288046 -218.46269226 18.74870682 C-203.54679848 17.37201542 -188.63047874 16.00006597 -173.71362263 14.63384108 C-172.91065768 14.560297 -172.10769273 14.48675292 -171.28039551 14.41098022 C-170.47643276 14.33734586 -169.67247002 14.26371149 -168.84414476 14.18784578 C-155.85405271 12.99779373 -142.86504732 11.79630552 -129.8764922 10.58960526 C-116.49526499 9.3465675 -103.11323277 8.11253081 -89.73034525 6.88749468 C-82.23521853 6.20122179 -74.74046079 5.51139618 -67.24656677 4.81177902 C-60.85729187 4.21534981 -54.467301 3.62741163 -48.07630181 3.0497403 C-44.82794314 2.75589486 -41.58016531 2.45724868 -38.33299828 2.15048027 C-25.54766572 0.94499597 -12.84789172 0.04255338 0 0 Z " fill="#EDEBFE" transform="translate(395.2447509765625,-0.243011474609375)"/>
<path d="M0 0 C1.06650457 -0.00511616 2.13300914 -0.01023233 3.23183203 -0.01550353 C19.27255372 0.09139192 32.7889589 5.75947941 44.46618652 16.82504272 C53.68506155 26.56306942 58.87271512 37.59256775 58.88667679 51.04044437 C58.88872942 51.71459116 58.89078206 52.38873795 58.89289689 53.08331344 C58.89855993 55.3466119 58.8971105 57.60984938 58.89569092 59.87315369 C58.89827496 61.51058791 58.90128823 63.1480215 58.90469432 64.78545421 C58.91276312 69.28881964 58.91455383 73.79216913 58.91529179 78.29554093 C58.91714258 83.15121966 58.9246901 88.00689013 58.931427 92.86256409 C58.94501054 103.48256862 58.95103523 114.10256937 58.95543766 124.72258115 C58.95820035 131.35457963 58.96243778 137.98657665 58.96694183 144.61857414 C58.97913509 162.98244542 58.98943393 181.34631553 58.99281693 199.71019077 C58.99303649 200.8856057 58.99325606 202.06102063 58.99348228 203.27205419 C58.99370055 204.45027748 58.99391883 205.62850077 58.99414372 206.84242779 C58.99458719 209.22994332 58.99503375 211.61745884 58.9954834 214.00497437 C58.99570483 215.18926381 58.99592626 216.37355326 58.9961544 217.59373026 C59.00010132 236.77797369 59.01755189 255.9621791 59.04084292 275.14640785 C59.06456524 294.84500177 59.0770192 314.54357662 59.07818484 334.24218506 C59.07910117 345.30117769 59.08484269 356.36012082 59.10300446 367.41909981 C59.11841739 376.83746401 59.12351889 386.25576341 59.11526635 395.67413784 C59.11136394 400.47761511 59.11226947 405.28096191 59.1263237 410.08442307 C59.13908714 414.48708374 59.13784369 418.88951625 59.12573299 423.29217672 C59.12378021 424.87971562 59.12683496 426.46727083 59.13557735 428.05478687 C59.22454551 445.31143453 55.94806325 458.30026828 44.00915527 471.14535522 C29.68392245 484.47750431 11.76299186 487.14301402 -6.88928223 488.79598999 C-8.4577256 488.93901234 -10.02612546 489.08251239 -11.59448528 489.22644806 C-15.85490197 489.61609897 -20.11589287 489.99910702 -24.37701201 490.38098836 C-28.91620176 490.78902067 -33.45480861 491.20343978 -37.9934845 491.61714172 C-46.73083265 492.41258254 -55.46866932 493.20251748 -64.20671409 493.99026531 C-75.24078467 494.98511083 -86.27439879 495.98498022 -97.3079834 496.98519897 C-98.29927809 497.07505939 -99.29057277 497.16491981 -100.3119067 497.25750327 C-101.30216008 497.34727006 -102.29241346 497.43703685 -103.31267452 497.52952385 C-104.30186927 497.6191943 -105.29106402 497.70886475 -106.31023437 497.80125248 C-108.30326283 497.98192589 -110.29629016 498.16261178 -112.28931636 498.34331024 C-118.24578336 498.88330328 -124.20231408 499.4225873 -130.15888828 499.96139657 C-151.82406172 501.92150544 -173.48661796 503.90423742 -195.1428566 505.96088982 C-198.66042175 506.29471433 -202.17812743 506.62701255 -205.69589233 506.95872498 C-207.9003302 507.1666805 -210.10476748 507.37464236 -212.3092041 507.58261108 C-213.35463945 507.68121083 -214.40007481 507.77981058 -215.47719002 507.8813982 C-220.44764113 508.35109135 -225.41757767 508.82531237 -230.38659668 509.30993652 C-297.81232329 515.88028074 -297.81232329 515.88028074 -317.93615723 500.13754272 C-327.89935646 491.51068914 -335.08174591 481.54240647 -337.24475098 468.24301147 C-337.33625081 465.97769325 -337.37382602 463.70994942 -337.37617874 461.44278526 C-337.37823138 460.76833888 -337.38028401 460.09389249 -337.38239884 459.39900833 C-337.38806189 457.13470056 -337.38661245 454.87045374 -337.38519287 452.60614014 C-337.38777691 450.96799322 -337.39079018 449.32984694 -337.39419627 447.69170153 C-337.40226505 443.18640549 -337.40405578 438.68112538 -337.40479374 434.17582297 C-337.40664452 429.31811836 -337.41419201 424.46042201 -337.42092896 419.60272217 C-337.43451218 408.97865268 -337.44053705 398.35458696 -337.44493961 387.73051023 C-337.44770219 381.09650944 -337.45193958 374.4625101 -337.45644379 367.82851028 C-337.4686367 349.46034779 -337.4789358 331.09218646 -337.48231888 312.72402 C-337.48253844 311.54835351 -337.48275801 310.37268702 -337.48298423 309.16139428 C-337.48320251 307.98291553 -337.48342079 306.80443678 -337.48364568 305.59024656 C-337.48408914 303.20220335 -337.48453571 300.81416015 -337.48498535 298.42611694 C-337.48520678 297.24156519 -337.48542821 296.05701343 -337.48565635 294.83656617 C-337.48960385 275.64518066 -337.50705632 256.45383314 -337.53034487 237.2624623 C-337.55406273 217.55822315 -337.56652094 197.85400306 -337.5676868 178.1497494 C-337.56860334 167.08687625 -337.57435041 156.02405259 -337.59250641 144.96119308 C-337.60791327 135.54023844 -337.6130244 126.11934858 -337.60476831 116.69838373 C-337.60086383 111.89300513 -337.60178156 107.08775694 -337.61582565 102.28239441 C-337.62857658 97.87916921 -337.62735657 93.47617227 -337.61523494 89.07294734 C-337.61328001 87.48408034 -337.61634694 85.8951971 -337.6250793 84.3063529 C-337.71084325 67.64011066 -334.4783706 53.92460126 -322.75646973 41.56332397 C-309.53367654 29.34817755 -293.21361897 25.6169728 -275.85302734 24.05340576 C-274.19551335 23.89770927 -274.19551335 23.89770927 -272.50451422 23.7388674 C-268.82398 23.39449714 -265.14279046 23.05774547 -261.46154785 22.72103882 C-258.81259679 22.47486634 -256.16368638 22.22828612 -253.51481628 21.98124695 C-247.07626833 21.38184065 -240.63718555 20.78838475 -234.1978631 20.19736217 C-228.9526712 19.71593359 -223.70763147 19.23288046 -218.46269226 18.74870682 C-203.54679848 17.37201542 -188.63047874 16.00006597 -173.71362263 14.63384108 C-172.91065768 14.560297 -172.10769273 14.48675292 -171.28039551 14.41098022 C-170.47643276 14.33734586 -169.67247002 14.26371149 -168.84414476 14.18784578 C-155.85405271 12.99779373 -142.86504732 11.79630552 -129.8764922 10.58960526 C-116.49526499 9.3465675 -103.11323277 8.11253081 -89.73034525 6.88749468 C-82.23521853 6.20122179 -74.74046079 5.51139618 -67.24656677 4.81177902 C-60.85729187 4.21534981 -54.467301 3.62741163 -48.07630181 3.0497403 C-44.82794314 2.75589486 -41.58016531 2.45724868 -38.33299828 2.15048027 C-25.54766572 0.94499597 -12.84789172 0.04255338 0 0 Z M31.91369629 27.72006226 C28.93181994 28.21377634 26.02300942 28.50171719 23.00915527 28.70785522 C21.93085449 28.78455444 20.85255371 28.86125366 19.74157715 28.9402771 C18.61171387 29.01955444 17.48185059 29.09883179 16.31774902 29.18051147 C0.04435162 29.07950639 0.04435162 29.07950639 -14.24475098 34.24301147 C-16.97108459 34.70889282 -16.97108459 34.70889282 -20.50866699 35.01742554 C-21.15699399 35.07648512 -21.80532099 35.1355447 -22.47329426 35.19639397 C-24.64774896 35.39233034 -26.82309872 35.57539565 -28.99865723 35.75863647 C-30.5435802 35.89542609 -32.08842967 36.03304799 -33.63320923 36.17144775 C-36.95018057 36.4669432 -40.2675754 36.75685156 -43.5854187 37.04238892 C-48.84413717 37.49499811 -54.1017675 37.95942935 -59.35925293 38.42611694 C-64.74324403 38.90355822 -70.12728623 39.380352 -75.51170349 39.85296631 C-86.6051134 40.82711641 -97.69584374 41.82596654 -108.78381348 42.86019897 C-109.46616373 42.92381308 -110.14851398 42.98742718 -110.85154152 43.05296898 C-114.2222447 43.36734531 -117.5928981 43.68225195 -120.96353149 43.99737549 C-141.84456085 45.94744048 -162.7305581 47.82494843 -183.62631226 49.6104126 C-190.74050688 50.2187425 -197.85424899 50.8323496 -204.96800232 51.44581604 C-209.80857912 51.86290749 -214.64926748 52.27811389 -219.49084473 52.68344116 C-254.06151042 55.31337773 -254.06151042 55.31337773 -282.24475098 74.24301147 C-291.11688042 84.77508772 -292.84484004 96.70296481 -292.75700378 110.08058167 C-292.76217344 111.54628712 -292.76909417 113.01198725 -292.77759677 114.47767717 C-292.79580044 118.47350868 -292.78947156 122.46897043 -292.7788974 126.46481526 C-292.77186285 130.78576068 -292.78797476 135.10662911 -292.80123901 139.42755127 C-292.8210995 146.90351619 -292.8265977 154.37937914 -292.82230186 161.85536766 C-292.81619868 172.66530802 -292.83309888 183.47511854 -292.8557118 194.28503255 C-292.89187965 211.82709366 -292.91107423 229.36912918 -292.91882324 246.91122437 C-292.92639711 263.94378841 -292.9395152 280.976329 -292.96179199 298.00888062 C-292.96316269 299.05957197 -292.96453339 300.11026332 -292.96594562 301.19279381 C-292.98106165 312.65460785 -292.99778723 324.11641906 -293.0157671 335.57822895 C-293.01733907 336.58429582 -293.01891104 337.59036269 -293.02053064 338.62691644 C-293.0334619 346.8970824 -293.0334619 346.8970824 -293.03954826 350.68877009 C-293.05838371 362.47252353 -293.07225049 374.25625975 -293.07734392 386.04002754 C-293.08057517 393.42055713 -293.08682285 400.80107953 -293.09547218 408.18160477 C-293.10121139 413.2674042 -293.10281484 418.35318184 -293.10123829 423.43898399 C-293.10132091 426.51253871 -293.10549712 429.58607704 -293.1109334 432.65962652 C-293.11259539 434.07515686 -293.11252605 435.49069041 -293.11062809 436.90622046 C-293.10828366 438.817664 -293.11256306 440.72911235 -293.11725903 442.64055157 C-293.11774878 443.70599719 -293.11823853 444.77144281 -293.11874312 445.86917466 C-293.24475098 448.24301147 -293.24475098 448.24301147 -294.24475098 449.24301147 C-294.33840104 450.99229867 -294.36219536 452.74537401 -294.35827637 454.49716187 C-294.35820084 455.61824844 -294.35812531 456.73933502 -294.35804749 457.89439392 C-294.3528862 459.11416428 -294.34772491 460.33393463 -294.34240723 461.59066772 C-294.34099228 462.83223129 -294.33957733 464.07379486 -294.33811951 465.35298157 C-294.33345688 468.65906638 -294.32446594 471.96508294 -294.31341553 475.27114868 C-294.30319925 478.64262297 -294.29862142 482.0141043 -294.2935791 485.3855896 C-294.28252493 492.00474922 -294.26576834 498.6238764 -294.24475098 505.24301147 C-291.25416981 506.9581188 -289.0892992 507.50230963 -285.652771 507.52442932 C-284.73757061 507.53087369 -283.82237022 507.53731806 -282.87943649 507.54395771 C-281.88269535 507.53641059 -280.88595421 507.52886347 -279.85900879 507.52108765 C-278.27197584 507.51350197 -278.27197584 507.51350197 -276.65288162 507.50576305 C-263.87202124 507.34443366 -251.18385382 506.17719369 -238.46523952 504.9845202 C-234.93763445 504.65609749 -231.40890514 504.34017371 -227.88031006 504.02259827 C-221.93277321 503.48566417 -215.98598184 502.9410761 -210.03967285 502.39071655 C-201.85296724 501.63299995 -193.66508967 500.88866814 -185.47687721 500.14743721 C-156.04677955 497.48176266 -126.62422532 494.73987347 -97.21221924 491.88090515 C-84.06032372 490.60280637 -70.90470167 489.37281848 -57.74475098 488.18051147 C-56.34296726 488.05338146 -56.34296726 488.05338146 -54.91286469 487.92368317 C-45.66288724 487.08505179 -36.41220584 486.25570779 -27.15960693 485.44645691 C-23.11896488 485.092315 -19.07869174 484.73406708 -15.03845215 484.37536621 C-13.11985165 484.20619476 -11.20107199 484.03904089 -9.28210449 483.87408447 C10.15456512 482.20303227 28.6703977 480.09158946 42.85681152 465.00863647 C52.84266315 452.68567064 54.05630751 440.58011544 54.01594543 425.15635681 C54.01896865 423.51816873 54.02285899 421.87998206 54.027538 420.24179786 C54.03780462 415.75498889 54.03563959 411.26825993 54.03135741 406.78144443 C54.02888779 401.93677657 54.03790724 397.09212786 54.0453949 392.24746704 C54.05813696 382.76232623 54.05993623 373.27721374 54.05759463 363.79206581 C54.05581091 356.08212226 54.05756229 348.37218731 54.06181908 340.6622448 C54.06271186 339.01567714 54.06271186 339.01567714 54.06362268 337.33584548 C54.06483444 335.1057876 54.06604857 332.87572972 54.06726506 330.64567184 C54.07813852 309.7378578 54.07597891 288.8300599 54.06988021 267.92224496 C54.06471019 248.79833393 54.0759691 229.67447383 54.09497843 210.55057288 C54.11435315 190.9083593 54.12261354 171.26616981 54.11885518 151.62394661 C54.11694271 140.59861604 54.11943523 129.57332883 54.13356972 118.54800606 C54.14547973 109.16298079 54.14689257 99.77802558 54.13477955 90.39299936 C54.12888848 85.60594752 54.12779784 80.81902384 54.13978195 76.03198051 C54.15063225 71.64684874 54.14754753 67.26195225 54.13352027 62.87683152 C54.13087102 61.29348772 54.13324704 59.71012553 54.14125613 58.12679977 C54.19599113 46.49565098 53.02686136 37.19108621 46.75524902 27.24301147 C44.8803321 27.21570686 43.00529677 27.19647903 41.13024902 27.18051147 C40.0861084 27.16890991 39.04196777 27.15730835 37.96618652 27.14535522 C34.8032655 27.16896487 34.8032655 27.16896487 31.91369629 27.72006226 Z " fill="#D1D1FD" transform="translate(395.2447509765625,-0.243011474609375)"/>
<path d="M0 0 C1.06650457 -0.00511616 2.13300914 -0.01023233 3.23183203 -0.01550353 C19.27255372 0.09139192 32.7889589 5.75947941 44.46618652 16.82504272 C53.68506155 26.56306942 58.87271512 37.59256775 58.88667679 51.04044437 C58.88872942 51.71459116 58.89078206 52.38873795 58.89289689 53.08331344 C58.89855993 55.3466119 58.8971105 57.60984938 58.89569092 59.87315369 C58.89827496 61.51058791 58.90128823 63.1480215 58.90469432 64.78545421 C58.91276312 69.28881964 58.91455383 73.79216913 58.91529179 78.29554093 C58.91714258 83.15121966 58.9246901 88.00689013 58.931427 92.86256409 C58.94501054 103.48256862 58.95103523 114.10256937 58.95543766 124.72258115 C58.95820035 131.35457963 58.96243778 137.98657665 58.96694183 144.61857414 C58.97913509 162.98244542 58.98943393 181.34631553 58.99281693 199.71019077 C58.99303649 200.8856057 58.99325606 202.06102063 58.99348228 203.27205419 C58.99370055 204.45027748 58.99391883 205.62850077 58.99414372 206.84242779 C58.99458719 209.22994332 58.99503375 211.61745884 58.9954834 214.00497437 C58.99570483 215.18926381 58.99592626 216.37355326 58.9961544 217.59373026 C59.00010132 236.77797369 59.01755189 255.9621791 59.04084292 275.14640785 C59.06456524 294.84500177 59.0770192 314.54357662 59.07818484 334.24218506 C59.07910117 345.30117769 59.08484269 356.36012082 59.10300446 367.41909981 C59.11841739 376.83746401 59.12351889 386.25576341 59.11526635 395.67413784 C59.11136394 400.47761511 59.11226947 405.28096191 59.1263237 410.08442307 C59.13908714 414.48708374 59.13784369 418.88951625 59.12573299 423.29217672 C59.12378021 424.87971562 59.12683496 426.46727083 59.13557735 428.05478687 C59.22454551 445.31143453 55.94806325 458.30026828 44.00915527 471.14535522 C29.68392245 484.47750431 11.76299186 487.14301402 -6.88928223 488.79598999 C-8.4577256 488.93901234 -10.02612546 489.08251239 -11.59448528 489.22644806 C-15.85490197 489.61609897 -20.11589287 489.99910702 -24.37701201 490.38098836 C-28.91620176 490.78902067 -33.45480861 491.20343978 -37.9934845 491.61714172 C-46.73083265 492.41258254 -55.46866932 493.20251748 -64.20671409 493.99026531 C-75.24078467 494.98511083 -86.27439879 495.98498022 -97.3079834 496.98519897 C-98.29927809 497.07505939 -99.29057277 497.16491981 -100.3119067 497.25750327 C-101.30216008 497.34727006 -102.29241346 497.43703685 -103.31267452 497.52952385 C-104.30186927 497.6191943 -105.29106402 497.70886475 -106.31023437 497.80125248 C-108.30326283 497.98192589 -110.29629016 498.16261178 -112.28931636 498.34331024 C-118.24578336 498.88330328 -124.20231408 499.4225873 -130.15888828 499.96139657 C-151.82406172 501.92150544 -173.48661796 503.90423742 -195.1428566 505.96088982 C-198.66042175 506.29471433 -202.17812743 506.62701255 -205.69589233 506.95872498 C-207.9003302 507.1666805 -210.10476748 507.37464236 -212.3092041 507.58261108 C-213.35463945 507.68121083 -214.40007481 507.77981058 -215.47719002 507.8813982 C-220.44764113 508.35109135 -225.41757767 508.82531237 -230.38659668 509.30993652 C-297.81232329 515.88028074 -297.81232329 515.88028074 -317.93615723 500.13754272 C-327.89935646 491.51068914 -335.08174591 481.54240647 -337.24475098 468.24301147 C-337.33625081 465.97769325 -337.37382602 463.70994942 -337.37617874 461.44278526 C-337.37823138 460.76833888 -337.38028401 460.09389249 -337.38239884 459.39900833 C-337.38806189 457.13470056 -337.38661245 454.87045374 -337.38519287 452.60614014 C-337.38777691 450.96799322 -337.39079018 449.32984694 -337.39419627 447.69170153 C-337.40226505 443.18640549 -337.40405578 438.68112538 -337.40479374 434.17582297 C-337.40664452 429.31811836 -337.41419201 424.46042201 -337.42092896 419.60272217 C-337.43451218 408.97865268 -337.44053705 398.35458696 -337.44493961 387.73051023 C-337.44770219 381.09650944 -337.45193958 374.4625101 -337.45644379 367.82851028 C-337.4686367 349.46034779 -337.4789358 331.09218646 -337.48231888 312.72402 C-337.48253844 311.54835351 -337.48275801 310.37268702 -337.48298423 309.16139428 C-337.48320251 307.98291553 -337.48342079 306.80443678 -337.48364568 305.59024656 C-337.48408914 303.20220335 -337.48453571 300.81416015 -337.48498535 298.42611694 C-337.48520678 297.24156519 -337.48542821 296.05701343 -337.48565635 294.83656617 C-337.48960385 275.64518066 -337.50705632 256.45383314 -337.53034487 237.2624623 C-337.55406273 217.55822315 -337.56652094 197.85400306 -337.5676868 178.1497494 C-337.56860334 167.08687625 -337.57435041 156.02405259 -337.59250641 144.96119308 C-337.60791327 135.54023844 -337.6130244 126.11934858 -337.60476831 116.69838373 C-337.60086383 111.89300513 -337.60178156 107.08775694 -337.61582565 102.28239441 C-337.62857658 97.87916921 -337.62735657 93.47617227 -337.61523494 89.07294734 C-337.61328001 87.48408034 -337.61634694 85.8951971 -337.6250793 84.3063529 C-337.71084325 67.64011066 -334.4783706 53.92460126 -322.75646973 41.56332397 C-309.53367654 29.34817755 -293.21361897 25.6169728 -275.85302734 24.05340576 C-274.19551335 23.89770927 -274.19551335 23.89770927 -272.50451422 23.7388674 C-268.82398 23.39449714 -265.14279046 23.05774547 -261.46154785 22.72103882 C-258.81259679 22.47486634 -256.16368638 22.22828612 -253.51481628 21.98124695 C-247.07626833 21.38184065 -240.63718555 20.78838475 -234.1978631 20.19736217 C-228.9526712 19.71593359 -223.70763147 19.23288046 -218.46269226 18.74870682 C-203.54679848 17.37201542 -188.63047874 16.00006597 -173.71362263 14.63384108 C-172.91065768 14.560297 -172.10769273 14.48675292 -171.28039551 14.41098022 C-170.47643276 14.33734586 -169.67247002 14.26371149 -168.84414476 14.18784578 C-155.85405271 12.99779373 -142.86504732 11.79630552 -129.8764922 10.58960526 C-116.49526499 9.3465675 -103.11323277 8.11253081 -89.73034525 6.88749468 C-82.23521853 6.20122179 -74.74046079 5.51139618 -67.24656677 4.81177902 C-60.85729187 4.21534981 -54.467301 3.62741163 -48.07630181 3.0497403 C-44.82794314 2.75589486 -41.58016531 2.45724868 -38.33299828 2.15048027 C-25.54766572 0.94499597 -12.84789172 0.04255338 0 0 Z M-46.63640594 7.80222654 C-50.56772365 8.16905289 -54.50030312 8.52186775 -58.43273926 8.87646484 C-65.01876679 9.47219669 -71.60395623 10.07650271 -78.18859863 10.68734741 C-87.41272705 11.54304716 -96.63821033 12.38334492 -105.8640461 13.2204082 C-139.32540115 16.1999991 -139.32540115 16.1999991 -172.74998093 19.55522728 C-181.59846289 20.50640488 -190.46054487 21.30812812 -199.32287598 22.11801147 C-201.19119109 22.28962973 -203.05949737 22.4613442 -204.92779541 22.63314819 C-208.81348728 22.99020601 -212.69925341 23.34644009 -216.58508301 23.70199585 C-221.4942493 24.15120724 -226.40326866 24.6020002 -231.31223679 25.05337143 C-235.14879995 25.40603313 -238.98542264 25.75804398 -242.82205963 26.10990143 C-244.69145561 26.28141072 -246.56083541 26.45309635 -248.43019867 26.62496185 C-256.9003404 27.40336157 -265.36990563 28.18102312 -273.84729004 28.87680054 C-274.92009216 28.96542358 -275.99289429 29.05404663 -277.09820557 29.14535522 C-278.95117558 29.29616085 -280.80453918 29.44226737 -282.65838623 29.58187866 C-297.73528071 30.8041106 -311.93820888 36.96415409 -322.24475098 48.24301147 C-331.09517003 59.88286221 -332.69034702 70.20182355 -332.61897278 84.41905212 C-332.62171568 86.06691603 -332.62576973 87.71477819 -332.63101643 89.36263603 C-332.64157833 93.87615405 -332.63349049 98.3894733 -332.62226593 102.90298259 C-332.61341004 107.77624221 -332.62187143 112.64947622 -332.62812805 117.5227356 C-332.63760976 127.0633734 -332.63102178 136.6039355 -332.61886511 146.14456768 C-332.60523517 157.25584195 -332.60688384 168.36709825 -332.60899844 179.47837877 C-332.61218738 199.30350299 -332.60052581 219.12859127 -332.58093262 238.95370483 C-332.56192632 258.19004409 -332.55484587 277.42634123 -332.5604248 296.66268921 C-332.56648272 317.61252863 -332.56630548 338.56234954 -332.55493897 359.51218742 C-332.55373169 361.74606478 -332.5525257 363.97994214 -332.55132103 366.2138195 C-332.55071749 367.31291891 -332.55011395 368.41201832 -332.54949212 369.54442378 C-332.54561311 377.28931304 -332.54600653 385.0341954 -332.54790688 392.77908516 C-332.55002906 402.21686118 -332.54480287 411.6546003 -332.53029332 421.09236593 C-332.52305032 425.90749453 -332.51897155 430.72256941 -332.52353668 435.53770256 C-332.52761457 439.94612882 -332.52244336 444.35444418 -332.50991061 448.76285361 C-332.50698407 450.35692645 -332.5074136 451.95100975 -332.51155368 453.54507989 C-332.54891712 469.36885288 -329.94166354 481.11117763 -318.76428223 492.91879272 C-303.22418427 507.25423192 -286.24167862 507.91043819 -266.24475098 507.24301147 C-256.96643657 506.72825987 -247.71601817 505.85200137 -238.46523952 504.9845202 C-234.93763445 504.65609749 -231.40890514 504.34017371 -227.88031006 504.02259827 C-221.93277321 503.48566417 -215.98598184 502.9410761 -210.03967285 502.39071655 C-201.85296724 501.63299995 -193.66508967 500.88866814 -185.47687721 500.14743721 C-156.04677955 497.48176266 -126.62422532 494.73987347 -97.21221924 491.88090515 C-84.06032372 490.60280637 -70.90470167 489.37281848 -57.74475098 488.18051147 C-56.34296726 488.05338146 -56.34296726 488.05338146 -54.91286469 487.92368317 C-45.66288724 487.08505179 -36.41220584 486.25570779 -27.15960693 485.44645691 C-23.11896488 485.092315 -19.07869174 484.73406708 -15.03845215 484.37536621 C-13.11985165 484.20619476 -11.20107199 484.03904089 -9.28210449 483.87408447 C10.15456512 482.20303227 28.6703977 480.09158946 42.85681152 465.00863647 C52.84266315 452.68567064 54.05630751 440.58011544 54.01594543 425.15635681 C54.01896865 423.51816873 54.02285899 421.87998206 54.027538 420.24179786 C54.03780462 415.75498889 54.03563959 411.26825993 54.03135741 406.78144443 C54.02888779 401.93677657 54.03790724 397.09212786 54.0453949 392.24746704 C54.05813696 382.76232623 54.05993623 373.27721374 54.05759463 363.79206581 C54.05581091 356.08212226 54.05756229 348.37218731 54.06181908 340.6622448 C54.06271186 339.01567714 54.06271186 339.01567714 54.06362268 337.33584548 C54.06483444 335.1057876 54.06604857 332.87572972 54.06726506 330.64567184 C54.07813852 309.7378578 54.07597891 288.8300599 54.06988021 267.92224496 C54.06471019 248.79833393 54.0759691 229.67447383 54.09497843 210.55057288 C54.11435315 190.9083593 54.12261354 171.26616981 54.11885518 151.62394661 C54.11694271 140.59861604 54.11943523 129.57332883 54.13356972 118.54800606 C54.14547973 109.16298079 54.14689257 99.77802558 54.13477955 90.39299936 C54.12888848 85.60594752 54.12779784 80.81902384 54.13978195 76.03198051 C54.15063225 71.64684874 54.14754753 67.26195225 54.13352027 62.87683152 C54.13087102 61.29348772 54.13324704 59.71012553 54.14125613 58.12679977 C54.21395575 42.6781832 51.22768872 31.14336122 40.56774902 19.49301147 C28.86217966 8.62169204 15.38969413 4.93446283 -0.10412598 4.97201538 C-1.28042068 4.97452616 -2.45671539 4.97703693 -3.6686554 4.97962379 C-18.05228855 5.12702497 -32.327336 6.45744708 -46.63640594 7.80222654 Z " fill="#030304" transform="translate(395.2447509765625,-0.243011474609375)"/>
<path d="M0 0 C4.8857002 2.19171598 7.14718149 4.52341989 9.77734375 9.3125 C10.3004104 12.3643485 10.24553726 15.34083389 10.16796875 18.4296875 C10.16230896 19.28684357 10.15664917 20.14399963 10.15081787 21.02713013 C10.12854014 23.7478368 10.07836149 26.46719568 10.02734375 29.1875 C10.00726755 31.03904339 9.98901875 32.89060756 9.97265625 34.7421875 C9.92870376 39.2661393 9.85973734 43.78909164 9.77734375 48.3125 C10.86490967 48.17537598 11.95247559 48.03825195 13.07299805 47.89697266 C14.52001614 47.71514225 15.96703781 47.53334038 17.4140625 47.3515625 C18.12848511 47.26140869 18.84290771 47.17125488 19.57897949 47.07836914 C25.30374241 46.360109 31.018817 45.69524196 36.77734375 45.3125 C37.71320313 45.23515625 38.6490625 45.1578125 39.61328125 45.078125 C45.38865724 44.79331194 49.38577742 45.30112591 54.1171875 48.76953125 C58.14818094 52.51598398 59.97018371 56.24301328 60.33984375 61.75 C60.07597362 66.73799673 58.37111392 70.8160611 54.77734375 74.3125 C47.37459337 79.25069835 39.26974678 79.40407866 30.65234375 80.0625 C29.19779226 80.18736116 27.7433628 80.31365262 26.2890625 80.44140625 C20.44362163 80.94021498 14.64910068 81.38689738 8.77734375 81.3125 C8.78894531 82.51261719 8.80054688 83.71273437 8.8125 84.94921875 C8.87621099 94.19668179 8.82186317 103.44418451 8.52734375 112.6875 C8.51324463 113.55979248 8.49914551 114.43208496 8.48461914 115.33081055 C8.27182595 120.77587527 7.3748197 123.98355944 3.77734375 128.3125 C-1.14114897 132.75113977 -5.08247183 133.77802112 -11.578125 133.73046875 C-16.04684258 133.02418695 -19.17613777 130.56809328 -22.22265625 127.3125 C-24.99664191 123.36140772 -24.47531231 119.01492124 -24.41796875 114.390625 C-24.41513885 113.53063904 -24.41230896 112.67065308 -24.40939331 111.78460693 C-24.39821775 109.04376179 -24.37311804 106.30324602 -24.34765625 103.5625 C-24.33762305 101.70182764 -24.3284978 99.84115015 -24.3203125 97.98046875 C-24.29828701 93.42435268 -24.26377522 88.86848214 -24.22265625 84.3125 C-25.31094727 84.44962402 -26.39923828 84.58674805 -27.52050781 84.72802734 C-28.96809583 84.90985566 -30.41568715 85.09165765 -31.86328125 85.2734375 C-32.57822754 85.36359131 -33.29317383 85.45374512 -34.02978516 85.54663086 C-39.75238579 86.2644141 -45.46472313 86.94893007 -51.22265625 87.3125 C-52.25519531 87.37824219 -53.28773438 87.44398438 -54.3515625 87.51171875 C-60.51428828 87.73100592 -64.47791022 87.70139007 -69.22265625 83.3125 C-73.75356188 78.16930983 -74.69511867 74.99340957 -74.6328125 68.2109375 C-73.97206216 63.54163509 -71.73939647 60.38060258 -68.22265625 57.3125 C-63.64701407 54.64020667 -59.88837209 53.80382929 -54.62890625 53.36328125 C-53.91915649 53.30093796 -53.20940674 53.23859467 -52.47814941 53.17436218 C-50.22711957 52.97976858 -47.97509556 52.80244297 -45.72265625 52.625 C-44.21084549 52.49520789 -42.69912516 52.36435801 -41.1875 52.23242188 C-35.19147969 51.72224589 -29.2459872 51.23039543 -23.22265625 51.3125 C-23.2383667 50.16249512 -23.25407715 49.01249023 -23.27026367 47.82763672 C-23.32472493 43.54499363 -23.35906511 39.26238094 -23.38745117 34.97949219 C-23.40250096 33.12885381 -23.42294558 31.27825089 -23.44897461 29.42773438 C-23.48552605 26.76162955 -23.50242079 24.09599792 -23.515625 21.4296875 C-23.53110886 20.60757782 -23.54659271 19.78546814 -23.56254578 18.93844604 C-23.56440922 12.52097794 -22.12772786 8.46181156 -17.78515625 3.5625 C-12.40935252 -1.15771791 -6.87155212 -2.12547131 0 0 Z " fill="#FB9CB0" transform="translate(225.22265625,93.6875)"/>
<path d="M0 0 C0.69738281 -0.02900391 1.39476562 -0.05800781 2.11328125 -0.08789062 C7.24374412 -0.1506929 10.04941198 1.10485838 14 4.3125 C16.3294429 7.18547958 16.95186952 8.94808348 17.4375 12.625 C16.8983398 17.16935029 15.72127432 20.61457201 13 24.3125 C7.64502136 27.77092371 2.56628524 28.43022365 -3.69140625 28.890625 C-5.09840496 28.99775172 -6.50538648 29.10510452 -7.91235352 29.21264648 C-8.66541779 29.26911346 -9.41848206 29.32558044 -10.19436646 29.38375854 C-26.50658664 30.61496866 -42.78495693 32.12782464 -59.0625 33.75 C-74.74499624 35.30981856 -90.42836348 36.83899148 -106.125 38.25 C-106.97465332 38.32641724 -107.82430664 38.40283447 -108.69970703 38.48156738 C-109.55935059 38.55887085 -110.41899414 38.63617432 -111.3046875 38.71582031 C-113.11067866 38.87823767 -114.9166682 39.04067302 -116.72265625 39.203125 C-118.11159592 39.32799286 -118.11159592 39.32799286 -119.52859497 39.4553833 C-134.20887926 40.77815623 -148.88536476 42.14282182 -163.5625 43.5 C-165.01133176 43.63394636 -166.46016395 43.76788806 -167.90899658 43.90182495 C-168.96739888 43.99966876 -168.96739888 43.99966876 -170.04718304 44.09948921 C-172.12870847 44.2919061 -174.21023586 44.48430175 -176.29176331 44.67669678 C-178.85015342 44.91320177 -181.40853422 45.14980748 -183.96690369 45.38653564 C-186.24938298 45.59761711 -188.53189265 45.80837036 -190.81443787 46.01873779 C-192.91906832 46.21281999 -195.0236134 46.4078304 -197.12806702 46.6038208 C-198.57891945 46.73793365 -198.57891945 46.73793365 -200.05908203 46.87475586 C-200.90028595 46.95294052 -201.74148987 47.03112518 -202.60818481 47.11167908 C-206.50959814 47.43924846 -210.398864 47.61243462 -214.3125 47.6875 C-215.45041992 47.74357422 -215.45041992 47.74357422 -216.61132812 47.80078125 C-220.70604389 47.86470569 -223.21859469 47.55899893 -226.45703125 44.93359375 C-230.21156043 41.06371805 -230.866636 38.71282205 -231.375 33.375 C-231.22744018 29.02198539 -229.97049391 26.5800433 -227 23.3125 C-219.54034679 18.42140812 -211.49271488 18.23098059 -202.8359375 17.56640625 C-201.22445309 17.43042729 -199.61309608 17.29293097 -198.00186157 17.15402222 C-194.57681715 16.86173972 -191.15115588 16.57949664 -187.72460938 16.3053894 C-182.32279562 15.8731165 -176.9230393 15.41820718 -171.5234375 14.95922852 C-165.19655345 14.42260471 -158.86934661 13.89027972 -152.54153824 13.36466503 C-139.01997855 12.24059456 -125.50890113 11.0173191 -112 9.75 C-109.9041469 9.55495696 -107.80828101 9.36005136 -105.71240234 9.1652832 C-94.26229404 8.09882607 -82.81428576 7.01055065 -71.36688232 5.91549873 C-69.19463103 5.70771336 -67.02236551 5.5000773 -64.85009766 5.29246521 C-58.52238987 4.68751581 -52.19476257 4.08180613 -45.86763 3.4708662 C-42.66186867 3.16166881 -39.4559117 2.85450888 -36.25 2.546875 C-34.54880005 2.3815905 -34.54880005 2.3815905 -32.81323242 2.21296692 C-21.90718387 1.16950628 -10.96054942 0.15900217 0 0 Z " fill="#4F4F8B" transform="translate(387,252.6875)"/>
<path d="M0 0 C4.00643207 3.62486711 6.38011919 6.41595351 7.0625 11.875 C6.33752484 17.67480131 4.06447132 21.62309591 -0.375 25.375 C-2.98535156 26.14379883 -2.98535156 26.14379883 -6.015625 26.51953125 C-7.17900391 26.66729004 -8.34238281 26.81504883 -9.54101562 26.96728516 C-15.87584638 27.64094584 -22.21016194 28.27345141 -28.55578613 28.83496094 C-33.23592366 29.24945119 -37.91476979 29.67814397 -42.59375 30.10546875 C-43.64330872 30.20105072 -44.69286743 30.29663269 -45.77423096 30.39511108 C-55.11291091 31.24973848 -64.44728605 32.14643101 -73.78125 33.05078125 C-75.32436571 33.20019578 -76.86748197 33.34960472 -78.41059875 33.49900818 C-80.76377387 33.7268713 -83.11694834 33.95474097 -85.47012043 34.18263531 C-111.5530567 36.70804638 -137.63733544 39.1481042 -163.75289917 41.31584167 C-164.62463776 41.38821548 -165.49637634 41.46058929 -166.39453125 41.53515625 C-167.6647966 41.64051445 -167.6647966 41.64051445 -168.96072388 41.7480011 C-179.96618137 42.66649384 -190.9596869 43.71044409 -201.953125 44.76171875 C-204.0937364 44.96628825 -206.23436065 45.17072328 -208.375 45.375 C-209.38199951 45.47143799 -210.38899902 45.56787598 -211.42651367 45.66723633 C-230.056659 47.41425631 -230.056659 47.41425631 -236 44.75 C-239.72715072 41.02284928 -241.50145327 37.63269307 -241.8125 32.375 C-241.63387909 28.12869377 -240.1623166 25.61431389 -237.375 22.375 C-233.8563934 19.91328341 -231.085982 18.91795215 -226.83984375 18.41796875 C-225.67420898 18.27818604 -224.50857422 18.13840332 -223.30761719 17.99438477 C-221.97600526 17.84955808 -220.6442943 17.70563992 -219.3125 17.5625 C-218.61161255 17.48329315 -217.9107251 17.4040863 -217.18859863 17.32247925 C-193.31783431 14.62601528 -169.34906583 12.75518092 -145.41740036 10.68488884 C-131.29463012 9.46267382 -117.17723233 8.18697366 -103.0625 6.875 C-101.47550293 6.72801666 -101.47550293 6.72801666 -99.85644531 6.57806396 C-87.0922675 5.3951433 -74.33128668 4.18109676 -61.57235146 2.94309616 C-59.38862763 2.73141112 -57.20484678 2.52032551 -55.02104187 2.30947876 C-54.30422776 2.24026529 -53.58741365 2.17105183 -52.84887791 2.09974098 C-51.40690698 1.96052729 -49.96493299 1.82134543 -48.52295589 1.68219566 C-44.32061789 1.27622213 -40.11876017 0.8656641 -35.91722012 0.45151806 C-32.68996132 0.13457772 -29.46211477 -0.17628319 -26.234375 -0.48828125 C-25.07954117 -0.60363724 -23.92470734 -0.71899323 -22.73487854 -0.83784485 C-5.22180403 -2.51420194 -5.22180403 -2.51420194 0 0 Z " fill="#4F4F8B" transform="translate(397.375,317.625)"/>
<path d="M0 0 C3.11850617 2.98291895 4.60544916 4.8506069 5.2109375 9.1171875 C5.30015043 14.84465733 4.87779176 18.31447399 0.875 22.75 C-3.12197963 25.68896878 -6.73475927 26.32594004 -11.56640625 26.671875 C-12.71052727 26.77011063 -12.71052727 26.77011063 -13.87776184 26.87033081 C-15.573134 27.01444022 -17.26901203 27.15268382 -18.965271 27.28594971 C-22.76680224 27.5848661 -26.56576887 27.91217138 -30.36517334 28.23684692 C-32.53256872 28.42165729 -34.70009637 28.60492132 -36.86773682 28.78683472 C-46.97517212 29.63811181 -57.07569287 30.55828486 -67.17578125 31.4921875 C-68.00750162 31.5690831 -68.83922199 31.6459787 -69.69614601 31.72520447 C-73.93867144 32.11767005 -78.18112996 32.51085331 -82.42355347 32.90441895 C-89.80078661 33.58863291 -97.17842315 34.2684675 -104.55607224 34.94817924 C-106.88526987 35.16284891 -109.21444205 35.37779303 -111.54360962 35.5927887 C-118.66478347 36.24976503 -125.78639167 36.90116742 -132.90931702 37.53892517 C-148.99742818 38.98186461 -165.06785282 40.61037691 -181.13989258 42.22094727 C-183.829585 42.49039337 -186.51940438 42.75850656 -189.20936584 43.0252533 C-191.70292075 43.27258795 -194.19629524 43.52175212 -196.68943787 43.77320862 C-205.16084643 44.61062741 -213.6294108 45.2255553 -222.125 45.75 C-223.20526962 45.82150772 -224.28553925 45.89301544 -225.39854431 45.96669006 C-230.91953787 46.28726309 -234.53543065 45.82754487 -238.8203125 42.16796875 C-241.67711802 39.06311724 -242.06259676 36.43643559 -242.4375 32.3125 C-241.99534914 27.27198016 -240.59109049 24.16022481 -236.93780518 20.64614868 C-233.58935624 18.38891555 -231.30775565 18.01881519 -227.30761719 17.59912109 C-226.65301891 17.52601904 -225.99842064 17.45291698 -225.32398605 17.37759972 C-223.25903458 17.15150497 -221.19266857 16.9495422 -219.125 16.75 C-217.8512854 16.61555481 -216.5775708 16.48110962 -215.26525879 16.34259033 C-211.24638264 15.92764394 -207.22556917 15.54231957 -203.203125 15.1640625 C-201.70648486 15.02121643 -200.20986779 14.87812851 -198.71327209 14.7348175 C-194.75254813 14.35628901 -190.79150038 13.9812652 -186.8303566 13.60715866 C-182.67735277 13.21448421 -178.52461188 12.81904552 -174.37182617 12.42407227 C-167.07344311 11.73040617 -159.77477248 11.03982023 -152.47596836 10.35060024 C-147.26397257 9.85823007 -142.05235555 9.36199713 -136.84094238 8.86349487 C-119.75725878 7.23091151 -102.66598431 5.70247013 -85.56640625 4.24609375 C-84.786514 4.17960318 -84.00662174 4.1131126 -83.20309639 4.04460716 C-75.32710398 3.37321821 -67.45094985 2.70394274 -59.5739584 2.04436874 C-39.41553139 0.3854738 -39.41553139 0.3854738 -19.31738281 -1.87084961 C-5.30757171 -3.53475575 -5.30757171 -3.53475575 0 0 Z " fill="#4F4F8B" transform="translate(398.125,382.25)"/>
<path d="M0 0 C-0.33 1.65 -0.66 3.3 -1 5 C-1.82032211 5.07437286 -2.64064423 5.14874573 -3.48582458 5.22537231 C-13.25868752 6.11152764 -23.03147721 6.9984883 -32.80422592 7.8859024 C-35.43715766 8.12496892 -38.07009545 8.36396878 -40.70303345 8.60296631 C-58.98563305 10.26277581 -77.26787909 11.92590411 -95.546875 13.625 C-96.57005105 13.72007182 -96.57005105 13.72007182 -97.61389732 13.81706429 C-100.31886943 14.06840633 -103.02383622 14.31980563 -105.72880077 14.57122898 C-127.2739976 16.5737832 -148.82200902 18.52521789 -170.38156128 20.36740112 C-177.49575591 20.97573103 -184.60949801 21.58933813 -191.72325134 22.20280457 C-196.56382814 22.61989601 -201.4045165 23.03510241 -206.24609375 23.44042969 C-240.92688357 25.90470148 -240.92688357 25.90470148 -269 45 C-271.40690446 48.51895526 -273.34208337 52.07471451 -275 56 C-275.25234573 56.57732846 -275.50469145 57.15465692 -275.76468402 57.74948019 C-278.54127101 64.89840567 -278.42741687 71.90945639 -278.39872742 79.48353577 C-278.40417289 80.94736306 -278.41092695 82.41118597 -278.41886932 83.87500185 C-278.4368396 87.87947495 -278.43634435 91.88376208 -278.43273985 95.88826597 C-278.43211471 100.21333184 -278.44874816 104.53833602 -278.46325684 108.8633728 C-278.48602541 116.35083031 -278.49792495 123.83824134 -278.50238609 131.32573128 C-278.50885191 142.15129529 -278.53179691 152.97677536 -278.55872939 163.80230551 C-278.60198237 181.36713392 -278.63195763 198.93195878 -278.65356445 216.49682617 C-278.6745786 233.55673969 -278.70185751 250.61662427 -278.73754883 267.67651367 C-278.73974765 268.7285586 -278.74194648 269.78060353 -278.74421193 270.8645286 C-278.7552817 276.14247027 -278.76647448 281.42041166 -278.77772844 286.69835293 C-278.87089246 330.46554309 -278.94250021 374.23274943 -279 418 C-280.32 417.67 -281.64 417.34 -283 417 C-283.09157672 372.08975334 -283.1620495 327.17951658 -283.20426132 282.26919494 C-283.20926408 276.9658401 -283.21444138 271.66248543 -283.21972656 266.35913086 C-283.2207758 265.30333864 -283.22182505 264.24754643 -283.22290608 263.15976051 C-283.24030626 246.06966717 -283.27184183 228.97962771 -283.30861118 211.88956632 C-283.34603136 194.3505941 -283.36823814 176.81165008 -283.37635398 159.27263957 C-283.38183951 148.45212501 -283.39915851 137.63176275 -283.43166587 126.81129507 C-283.45282702 119.38898285 -283.45919641 111.96674925 -283.45400551 104.54440906 C-283.45144623 100.26355361 -283.45534005 95.9829641 -283.4768219 91.70215607 C-283.49637 87.77792627 -283.49721693 83.8541398 -283.48359558 79.92988906 C-283.48191353 78.51515808 -283.48691778 77.10039877 -283.49953273 75.68572303 C-283.62185368 61.11322974 -279.45405242 48.69287661 -269.4375 37.875 C-257.74446442 26.8933278 -244.50484713 22.49653205 -228.9921875 20.6640625 C-227.93452179 20.53848465 -226.87685608 20.4129068 -225.78713989 20.28352356 C-207.28038163 18.1620474 -188.70698055 16.63444283 -170.15410995 14.98037338 C-161.26601955 14.18653446 -152.37876465 13.38335286 -143.49142265 12.58118629 C-141.277024 12.38134043 -139.06261386 12.18162181 -136.84819221 11.98203087 C-117.95518577 10.27877795 -99.06946456 8.50867093 -80.1875 6.6875 C-61.94327309 4.93172365 -43.69624101 3.22347419 -25.4375 1.625 C-24.46557709 1.53914642 -23.49365417 1.45329285 -22.49227905 1.36483765 C-19.80629984 1.12825842 -17.12002874 0.89540176 -14.43359375 0.6640625 C-13.27141327 0.56145363 -13.27141327 0.56145363 -12.08575439 0.45677185 C-8.04443027 0.11445491 -4.05561473 -0.06806738 0 0 Z " fill="#060607" transform="translate(382,30)"/>
<path d="M0 0 C3.11850617 2.98291895 4.60544916 4.8506069 5.2109375 9.1171875 C5.30015043 14.84465733 4.87779176 18.31447399 0.875 22.75 C-3.12197963 25.68896878 -6.73475927 26.32594004 -11.56640625 26.671875 C-12.71052727 26.77011063 -12.71052727 26.77011063 -13.87776184 26.87033081 C-15.573134 27.01444022 -17.26901203 27.15268382 -18.965271 27.28594971 C-22.76680224 27.5848661 -26.56576887 27.91217138 -30.36517334 28.23684692 C-32.53256872 28.42165729 -34.70009637 28.60492132 -36.86773682 28.78683472 C-46.97517212 29.63811181 -57.07569287 30.55828486 -67.17578125 31.4921875 C-68.00750162 31.5690831 -68.83922199 31.6459787 -69.69614601 31.72520447 C-73.93867144 32.11767005 -78.18112996 32.51085331 -82.42355347 32.90441895 C-89.80078661 33.58863291 -97.17842315 34.2684675 -104.55607224 34.94817924 C-106.88526987 35.16284891 -109.21444205 35.37779303 -111.54360962 35.5927887 C-118.66478347 36.24976503 -125.78639167 36.90116742 -132.90931702 37.53892517 C-148.99742818 38.98186461 -165.06785282 40.61037691 -181.13989258 42.22094727 C-183.829585 42.49039337 -186.51940438 42.75850656 -189.20936584 43.0252533 C-191.70292075 43.27258795 -194.19629524 43.52175212 -196.68943787 43.77320862 C-205.16084643 44.61062741 -213.6294108 45.2255553 -222.125 45.75 C-223.20526962 45.82150772 -224.28553925 45.89301544 -225.39854431 45.96669006 C-230.91953787 46.28726309 -234.53543065 45.82754487 -238.8203125 42.16796875 C-241.67711802 39.06311724 -242.06259676 36.43643559 -242.4375 32.3125 C-241.99534914 27.27198016 -240.59109049 24.16022481 -236.93780518 20.64614868 C-233.58935624 18.38891555 -231.30775565 18.01881519 -227.30761719 17.59912109 C-226.65301891 17.52601904 -225.99842064 17.45291698 -225.32398605 17.37759972 C-223.25903458 17.15150497 -221.19266857 16.9495422 -219.125 16.75 C-217.8512854 16.61555481 -216.5775708 16.48110962 -215.26525879 16.34259033 C-211.24638264 15.92764394 -207.22556917 15.54231957 -203.203125 15.1640625 C-201.70648486 15.02121643 -200.20986779 14.87812851 -198.71327209 14.7348175 C-194.75254813 14.35628901 -190.79150038 13.9812652 -186.8303566 13.60715866 C-182.67735277 13.21448421 -178.52461188 12.81904552 -174.37182617 12.42407227 C-167.07344311 11.73040617 -159.77477248 11.03982023 -152.47596836 10.35060024 C-147.26397257 9.85823007 -142.05235555 9.36199713 -136.84094238 8.86349487 C-119.75725878 7.23091151 -102.66598431 5.70247013 -85.56640625 4.24609375 C-84.786514 4.17960318 -84.00662174 4.1131126 -83.20309639 4.04460716 C-75.32710398 3.37321821 -67.45094985 2.70394274 -59.5739584 2.04436874 C-39.41553139 0.3854738 -39.41553139 0.3854738 -19.31738281 -1.87084961 C-5.30757171 -3.53475575 -5.30757171 -3.53475575 0 0 Z M-40.5625 4.5 C-42.70156934 4.68167034 -44.84064826 4.86322794 -46.97973633 5.04467773 C-60.90416828 6.23808837 -74.80734418 7.59186701 -88.70455933 9.06628418 C-101.09776465 10.38012207 -113.49481035 11.46642337 -125.92001343 12.42752075 C-138.65662239 13.41703683 -151.35458312 14.65981739 -164.05783081 16.00823975 C-177.92980036 17.47700573 -191.81112538 18.68315664 -205.72265625 19.7109375 C-209.86062348 20.02047937 -213.99254102 20.37344534 -218.125 20.75 C-219.11871613 20.8359845 -219.11871613 20.8359845 -220.13250732 20.92370605 C-222.04782233 21.09856083 -223.95965292 21.31036536 -225.87109375 21.5234375 C-226.95962646 21.63864746 -228.04815918 21.75385742 -229.16967773 21.87255859 C-232.93878769 22.99161528 -234.61949241 24.77357087 -237.125 27.75 C-237.96869794 30.51691 -237.75568481 32.93748668 -237.125 35.75 C-235.33136089 38.5600346 -234.10619065 40.25940468 -231.125 41.75 C-228.69872731 41.73414074 -226.3216408 41.642729 -223.90234375 41.4921875 C-223.12076401 41.44585175 -222.33918427 41.39951599 -221.53392029 41.35177612 C-209.25681503 40.56460981 -197.0167584 39.27920342 -184.77466965 38.07907486 C-178.4259957 37.45832765 -172.07620135 36.84906291 -165.7265625 36.23828125 C-165.03725836 36.17186369 -164.34795422 36.10544613 -163.63776207 36.03701591 C-152.618242 34.97590934 -141.59511864 33.97721436 -130.5625 33.0625 C-119.17491802 32.11667463 -107.80752514 31.03800351 -96.44042969 29.87207031 C-87.79454833 28.99402644 -79.14420409 28.21908896 -70.48449707 27.49435425 C-57.19089047 26.38132382 -43.90317285 25.2112238 -30.62295532 23.94772339 C-28.80674807 23.77573384 -26.99032224 23.60603533 -25.17367554 23.43875122 C-22.63074289 23.20395416 -20.08877684 22.96051879 -17.546875 22.71484375 C-16.42255821 22.6133754 -16.42255821 22.6133754 -15.27552795 22.50985718 C-7.19209653 21.78325223 -7.19209653 21.78325223 -0.1875 18.125 C1.37855394 14.62440883 1.59535305 11.46202339 0.875 7.75 C-0.57222123 4.4649703 -0.57222123 4.4649703 -4.125 2.75 C-16.09351223 1.56919958 -28.63246234 3.46330531 -40.5625 4.5 Z " fill="#0A0A0C" transform="translate(398.125,382.25)"/>
<path d="M0 0 C4.00643207 3.62486711 6.38011919 6.41595351 7.0625 11.875 C6.33752484 17.67480131 4.06447132 21.62309591 -0.375 25.375 C-2.98535156 26.14379883 -2.98535156 26.14379883 -6.015625 26.51953125 C-7.17900391 26.66729004 -8.34238281 26.81504883 -9.54101562 26.96728516 C-15.87584638 27.64094584 -22.21016194 28.27345141 -28.55578613 28.83496094 C-33.23592366 29.24945119 -37.91476979 29.67814397 -42.59375 30.10546875 C-43.64330872 30.20105072 -44.69286743 30.29663269 -45.77423096 30.39511108 C-55.11291091 31.24973848 -64.44728605 32.14643101 -73.78125 33.05078125 C-75.32436571 33.20019578 -76.86748197 33.34960472 -78.41059875 33.49900818 C-80.76377387 33.7268713 -83.11694834 33.95474097 -85.47012043 34.18263531 C-111.5530567 36.70804638 -137.63733544 39.1481042 -163.75289917 41.31584167 C-164.62463776 41.38821548 -165.49637634 41.46058929 -166.39453125 41.53515625 C-167.6647966 41.64051445 -167.6647966 41.64051445 -168.96072388 41.7480011 C-179.96618137 42.66649384 -190.9596869 43.71044409 -201.953125 44.76171875 C-204.0937364 44.96628825 -206.23436065 45.17072328 -208.375 45.375 C-209.38199951 45.47143799 -210.38899902 45.56787598 -211.42651367 45.66723633 C-230.056659 47.41425631 -230.056659 47.41425631 -236 44.75 C-239.72715072 41.02284928 -241.50145327 37.63269307 -241.8125 32.375 C-241.63387909 28.12869377 -240.1623166 25.61431389 -237.375 22.375 C-233.8563934 19.91328341 -231.085982 18.91795215 -226.83984375 18.41796875 C-225.67420898 18.27818604 -224.50857422 18.13840332 -223.30761719 17.99438477 C-221.97600526 17.84955808 -220.6442943 17.70563992 -219.3125 17.5625 C-218.61161255 17.48329315 -217.9107251 17.4040863 -217.18859863 17.32247925 C-193.31783431 14.62601528 -169.34906583 12.75518092 -145.41740036 10.68488884 C-131.29463012 9.46267382 -117.17723233 8.18697366 -103.0625 6.875 C-101.47550293 6.72801666 -101.47550293 6.72801666 -99.85644531 6.57806396 C-87.0922675 5.3951433 -74.33128668 4.18109676 -61.57235146 2.94309616 C-59.38862763 2.73141112 -57.20484678 2.52032551 -55.02104187 2.30947876 C-54.30422776 2.24026529 -53.58741365 2.17105183 -52.84887791 2.09974098 C-51.40690698 1.96052729 -49.96493299 1.82134543 -48.52295589 1.68219566 C-44.32061789 1.27622213 -40.11876017 0.8656641 -35.91722012 0.45151806 C-32.68996132 0.13457772 -29.46211477 -0.17628319 -26.234375 -0.48828125 C-25.07954117 -0.60363724 -23.92470734 -0.71899323 -22.73487854 -0.83784485 C-5.22180403 -2.51420194 -5.22180403 -2.51420194 0 0 Z M-36.20602417 4.91259766 C-40.46448674 5.39654682 -44.72638722 5.84821217 -48.98828125 6.30078125 C-49.85796036 6.39356354 -50.72763947 6.48634583 -51.62367249 6.5819397 C-60.34180944 7.49990546 -69.0725656 8.20267022 -77.8125 8.875 C-90.53907127 9.86162958 -103.23895818 11.01394434 -115.9375 12.3125 C-128.9432049 13.64232312 -141.95175022 14.90377894 -154.97332764 16.06860352 C-157.67990956 16.31181792 -160.38614316 16.55858218 -163.09228516 16.80664062 C-164.93391637 16.97529215 -166.77555052 17.14391153 -168.6171875 17.3125 C-170.00878586 17.43993591 -170.00878586 17.43993591 -171.42849731 17.56994629 C-177.86711815 18.15605099 -184.30793566 18.71158258 -190.75013733 19.25682068 C-195.45662578 19.65979144 -200.16131159 20.08164368 -204.86581421 20.5071106 C-207.14947322 20.70945143 -209.43385658 20.90378898 -211.71890259 21.08981323 C-214.90726887 21.35037338 -218.0919843 21.63881914 -221.27734375 21.93359375 C-222.2273526 22.0044519 -223.17736145 22.07531006 -224.15615845 22.14831543 C-228.71167287 22.59834829 -230.81734309 22.91566179 -234.44360352 25.90258789 C-235.08096436 26.71848389 -235.7183252 27.53437988 -236.375 28.375 C-236.705 28.705 -237.035 29.035 -237.375 29.375 C-237.7975153 34.02266832 -237.17900795 36.63632274 -234.375 40.375 C-226.52513662 45.60824225 -212.60590985 41.67912453 -203.5 40.8125 C-201.61055716 40.63609654 -199.72106956 40.46017208 -197.83154297 40.28466797 C-193.50730669 39.88260153 -189.1833006 39.47814694 -184.859375 39.07275391 C-177.26555773 38.36268301 -169.67041103 37.66751923 -162.07506561 36.97403145 C-128.06556409 33.86846359 -94.06196495 30.71402179 -60.07495117 27.37036133 C-49.44156118 26.32706636 -38.81033988 25.29899833 -28.16015625 24.44140625 C-27.33402832 24.37386139 -26.50790039 24.30631653 -25.65673828 24.23672485 C-22.01937284 23.9404367 -18.38208494 23.65596071 -14.74169922 23.39941406 C-13.54689941 23.30499023 -12.35209961 23.21056641 -11.12109375 23.11328125 C-9.61567017 23.00560425 -9.61567017 23.00560425 -8.07983398 22.89575195 C-4.93470038 22.2902307 -2.96126985 21.2484503 -0.375 19.375 C1.73712504 16.20681244 1.95656464 14.24280748 2.18359375 10.5078125 C1.27870105 7.05276765 -0.64039037 5.59764971 -3.375 3.375 C-6.17116584 2.94209594 -8.27833814 2.81028109 -11.046875 2.94921875 C-12.16277008 2.97842659 -12.16277008 2.97842659 -13.3012085 3.00822449 C-20.96717647 3.26833164 -28.58865703 4.04469503 -36.20602417 4.91259766 Z " fill="#09090C" transform="translate(397.375,317.625)"/>
<path d="M0 0 C0.69738281 -0.02900391 1.39476562 -0.05800781 2.11328125 -0.08789062 C7.24374412 -0.1506929 10.04941198 1.10485838 14 4.3125 C16.3294429 7.18547958 16.95186952 8.94808348 17.4375 12.625 C16.8983398 17.16935029 15.72127432 20.61457201 13 24.3125 C7.64502136 27.77092371 2.56628524 28.43022365 -3.69140625 28.890625 C-5.09840496 28.99775172 -6.50538648 29.10510452 -7.91235352 29.21264648 C-8.66541779 29.26911346 -9.41848206 29.32558044 -10.19436646 29.38375854 C-26.50658664 30.61496866 -42.78495693 32.12782464 -59.0625 33.75 C-74.74499624 35.30981856 -90.42836348 36.83899148 -106.125 38.25 C-106.97465332 38.32641724 -107.82430664 38.40283447 -108.69970703 38.48156738 C-109.55935059 38.55887085 -110.41899414 38.63617432 -111.3046875 38.71582031 C-113.11067866 38.87823767 -114.9166682 39.04067302 -116.72265625 39.203125 C-118.11159592 39.32799286 -118.11159592 39.32799286 -119.52859497 39.4553833 C-134.20887926 40.77815623 -148.88536476 42.14282182 -163.5625 43.5 C-165.01133176 43.63394636 -166.46016395 43.76788806 -167.90899658 43.90182495 C-168.96739888 43.99966876 -168.96739888 43.99966876 -170.04718304 44.09948921 C-172.12870847 44.2919061 -174.21023586 44.48430175 -176.29176331 44.67669678 C-178.85015342 44.91320177 -181.40853422 45.14980748 -183.96690369 45.38653564 C-186.24938298 45.59761711 -188.53189265 45.80837036 -190.81443787 46.01873779 C-192.91906832 46.21281999 -195.0236134 46.4078304 -197.12806702 46.6038208 C-198.57891945 46.73793365 -198.57891945 46.73793365 -200.05908203 46.87475586 C-200.90028595 46.95294052 -201.74148987 47.03112518 -202.60818481 47.11167908 C-206.50959814 47.43924846 -210.398864 47.61243462 -214.3125 47.6875 C-215.45041992 47.74357422 -215.45041992 47.74357422 -216.61132812 47.80078125 C-220.70604389 47.86470569 -223.21859469 47.55899893 -226.45703125 44.93359375 C-230.21156043 41.06371805 -230.866636 38.71282205 -231.375 33.375 C-231.22744018 29.02198539 -229.97049391 26.5800433 -227 23.3125 C-219.54034679 18.42140812 -211.49271488 18.23098059 -202.8359375 17.56640625 C-201.22445309 17.43042729 -199.61309608 17.29293097 -198.00186157 17.15402222 C-194.57681715 16.86173972 -191.15115588 16.57949664 -187.72460938 16.3053894 C-182.32279562 15.8731165 -176.9230393 15.41820718 -171.5234375 14.95922852 C-165.19655345 14.42260471 -158.86934661 13.89027972 -152.54153824 13.36466503 C-139.01997855 12.24059456 -125.50890113 11.0173191 -112 9.75 C-109.9041469 9.55495696 -107.80828101 9.36005136 -105.71240234 9.1652832 C-94.26229404 8.09882607 -82.81428576 7.01055065 -71.36688232 5.91549873 C-69.19463103 5.70771336 -67.02236551 5.5000773 -64.85009766 5.29246521 C-58.52238987 4.68751581 -52.19476257 4.08180613 -45.86763 3.4708662 C-42.66186867 3.16166881 -39.4559117 2.85450888 -36.25 2.546875 C-34.54880005 2.3815905 -34.54880005 2.3815905 -32.81323242 2.21296692 C-21.90718387 1.16950628 -10.96054942 0.15900217 0 0 Z M-21.41015625 5.51953125 C-23.26112663 5.70712761 -23.26112663 5.70712761 -25.14949036 5.89851379 C-28.4423102 6.23273753 -31.73448877 6.57260039 -35.02651215 6.91455841 C-41.2180833 7.55452494 -47.41194525 8.17224217 -53.60546875 8.79296875 C-54.62051105 8.89501869 -54.62051105 8.89501869 -55.65605927 8.99913025 C-66.72029836 10.11021795 -77.78746603 11.09386116 -88.875 11.9375 C-101.93046144 12.93543172 -114.94340909 14.19515555 -127.96405029 15.57330322 C-139.0390318 16.74249576 -150.11366694 17.77286255 -161.21679688 18.63497925 C-174.44608043 19.66356595 -187.67173585 20.74321593 -200.88110352 22.00390625 C-202.61149013 22.16650807 -204.34245957 22.323035 -206.07397461 22.47314453 C-208.47831156 22.68287009 -210.87952671 22.91476769 -213.28125 23.15234375 C-213.99095947 23.20966171 -214.70066895 23.26697968 -215.43188477 23.32603455 C-220.07573729 23.81824028 -222.68041813 25.03694545 -226 28.3125 C-227.76366525 31.83983049 -226.92159284 35.5797175 -226 39.3125 C-224.32783723 42.13572797 -224.32783723 42.13572797 -221 43.3125 C-212.20172946 43.97228185 -203.31848977 42.9492319 -194.5625 42.125 C-193.10257407 41.99164098 -191.6426116 41.85868141 -190.18261719 41.72607422 C-185.1209063 41.26375918 -180.06044469 40.78844421 -175 40.3125 C-173.03694873 40.12839538 -171.07389528 39.94431411 -169.11083984 39.76025391 C-160.3970818 38.94239615 -151.68363077 38.12133729 -142.97070312 37.29467773 C-125.34600615 35.62281274 -107.71787278 33.99020117 -90.08856201 32.36779785 C-76.21551175 31.08985129 -62.3494014 29.77053754 -48.49145508 28.33764648 C-41.85096954 27.66235105 -35.20767062 27.07012568 -28.5546875 26.53515625 C-27.74035248 26.4693335 -26.92601746 26.40351074 -26.08700562 26.33569336 C-22.10795688 26.01534809 -18.1285358 25.70248524 -14.14794922 25.40185547 C-0.97665718 25.1005677 -0.97665718 25.1005677 10.625 20.1875 C12.44207928 16.38815241 13.03066051 13.43514204 12 9.3125 C9.88799058 6.33083964 9.27359981 5.53738992 6 4.3125 C-3.12536387 3.58188756 -12.3351405 4.55445571 -21.41015625 5.51953125 Z " fill="#0A0A0C" transform="translate(387,252.6875)"/>
<path d="M0 0 C4.8857002 2.19171598 7.14718149 4.52341989 9.77734375 9.3125 C10.3004104 12.3643485 10.24553726 15.34083389 10.16796875 18.4296875 C10.16230896 19.28684357 10.15664917 20.14399963 10.15081787 21.02713013 C10.12854014 23.7478368 10.07836149 26.46719568 10.02734375 29.1875 C10.00726755 31.03904339 9.98901875 32.89060756 9.97265625 34.7421875 C9.92870376 39.2661393 9.85973734 43.78909164 9.77734375 48.3125 C10.86490967 48.17537598 11.95247559 48.03825195 13.07299805 47.89697266 C14.52001614 47.71514225 15.96703781 47.53334038 17.4140625 47.3515625 C18.12848511 47.26140869 18.84290771 47.17125488 19.57897949 47.07836914 C25.30374241 46.360109 31.018817 45.69524196 36.77734375 45.3125 C37.71320313 45.23515625 38.6490625 45.1578125 39.61328125 45.078125 C45.38865724 44.79331194 49.38577742 45.30112591 54.1171875 48.76953125 C58.14818094 52.51598398 59.97018371 56.24301328 60.33984375 61.75 C60.07597362 66.73799673 58.37111392 70.8160611 54.77734375 74.3125 C47.37459337 79.25069835 39.26974678 79.40407866 30.65234375 80.0625 C29.19779226 80.18736116 27.7433628 80.31365262 26.2890625 80.44140625 C20.44362163 80.94021498 14.64910068 81.38689738 8.77734375 81.3125 C8.78894531 82.51261719 8.80054688 83.71273437 8.8125 84.94921875 C8.87621099 94.19668179 8.82186317 103.44418451 8.52734375 112.6875 C8.51324463 113.55979248 8.49914551 114.43208496 8.48461914 115.33081055 C8.27182595 120.77587527 7.3748197 123.98355944 3.77734375 128.3125 C-1.14114897 132.75113977 -5.08247183 133.77802112 -11.578125 133.73046875 C-16.04684258 133.02418695 -19.17613777 130.56809328 -22.22265625 127.3125 C-24.99664191 123.36140772 -24.47531231 119.01492124 -24.41796875 114.390625 C-24.41513885 113.53063904 -24.41230896 112.67065308 -24.40939331 111.78460693 C-24.39821775 109.04376179 -24.37311804 106.30324602 -24.34765625 103.5625 C-24.33762305 101.70182764 -24.3284978 99.84115015 -24.3203125 97.98046875 C-24.29828701 93.42435268 -24.26377522 88.86848214 -24.22265625 84.3125 C-25.31094727 84.44962402 -26.39923828 84.58674805 -27.52050781 84.72802734 C-28.96809583 84.90985566 -30.41568715 85.09165765 -31.86328125 85.2734375 C-32.57822754 85.36359131 -33.29317383 85.45374512 -34.02978516 85.54663086 C-39.75238579 86.2644141 -45.46472313 86.94893007 -51.22265625 87.3125 C-52.25519531 87.37824219 -53.28773438 87.44398438 -54.3515625 87.51171875 C-60.51428828 87.73100592 -64.47791022 87.70139007 -69.22265625 83.3125 C-73.75356188 78.16930983 -74.69511867 74.99340957 -74.6328125 68.2109375 C-73.97206216 63.54163509 -71.73939647 60.38060258 -68.22265625 57.3125 C-63.64701407 54.64020667 -59.88837209 53.80382929 -54.62890625 53.36328125 C-53.91915649 53.30093796 -53.20940674 53.23859467 -52.47814941 53.17436218 C-50.22711957 52.97976858 -47.97509556 52.80244297 -45.72265625 52.625 C-44.21084549 52.49520789 -42.69912516 52.36435801 -41.1875 52.23242188 C-35.19147969 51.72224589 -29.2459872 51.23039543 -23.22265625 51.3125 C-23.2383667 50.16249512 -23.25407715 49.01249023 -23.27026367 47.82763672 C-23.32472493 43.54499363 -23.35906511 39.26238094 -23.38745117 34.97949219 C-23.40250096 33.12885381 -23.42294558 31.27825089 -23.44897461 29.42773438 C-23.48552605 26.76162955 -23.50242079 24.09599792 -23.515625 21.4296875 C-23.53110886 20.60757782 -23.54659271 19.78546814 -23.56254578 18.93844604 C-23.56440922 12.52097794 -22.12772786 8.46181156 -17.78515625 3.5625 C-12.40935252 -1.15771791 -6.87155212 -2.12547131 0 0 Z M-17.22265625 9.3125 C-18.77480672 12.41680094 -18.44258652 15.72562662 -18.50390625 19.13671875 C-18.52231567 19.91634476 -18.5407251 20.69597076 -18.55969238 21.4992218 C-18.61850587 23.99940355 -18.67123159 26.49965605 -18.72265625 29 C-18.77425912 31.48248397 -18.82734647 33.96488299 -18.88562012 36.44721985 C-18.92187582 37.99204395 -18.95439298 39.53696192 -18.98254395 41.08195496 C-19.08771644 45.57234547 -19.50221242 49.87790575 -20.22265625 54.3125 C-23.05553912 55.25679429 -25.24654694 55.55816906 -28.203125 55.77734375 C-29.69138794 55.89215088 -29.69138794 55.89215088 -31.2097168 56.00927734 C-32.26586182 56.08871582 -33.32200684 56.1681543 -34.41015625 56.25 C-45.41873607 57.12511989 -45.41873607 57.12511989 -56.41015625 58.1875 C-57.62058594 58.30867188 -58.83101562 58.42984375 -60.078125 58.5546875 C-64.31290616 59.57524346 -66.93533613 61.59607317 -69.53515625 65.0625 C-70.59582365 68.53377513 -70.89832656 71.76352464 -70.22265625 75.3125 C-68.14613014 79.08499365 -65.28791862 81.8506762 -61.22265625 83.3125 C-57.83401874 83.40937801 -57.83401874 83.40937801 -53.97265625 83.0625 C-53.25408447 83.0116626 -52.5355127 82.9608252 -51.79516602 82.90844727 C-49.26966879 82.7243377 -46.74635718 82.5197735 -44.22265625 82.3125 C-43.18544434 82.22919434 -42.14823242 82.14588867 -41.07958984 82.06005859 C-34.12535102 81.49957994 -27.17333177 80.91549458 -20.22265625 80.3125 C-20.24622192 82.13624146 -20.24622192 82.13624146 -20.27026367 83.99682617 C-20.32464426 88.51612703 -20.35903597 93.03539906 -20.38745117 97.55493164 C-20.40251926 99.50940823 -20.42297749 101.46385112 -20.44897461 103.41821289 C-20.4854449 106.23071623 -20.50240247 109.04277174 -20.515625 111.85546875 C-20.53110886 112.72648727 -20.54659271 113.5975058 -20.56254578 114.49491882 C-20.56386559 119.27383529 -20.33448938 122.4335965 -17.22265625 126.3125 C-14.32065262 128.65022514 -12.49964731 129.27724659 -8.78515625 129.75 C-3.74555863 129.13110205 -0.75582718 127.21954826 2.41723633 123.27270508 C4.35323001 119.05911266 4.25623144 115.22434821 4.2890625 110.63671875 C4.3159893 109.24898003 4.3159893 109.24898003 4.34346008 107.83320618 C4.39748454 104.88884997 4.43143366 101.94465516 4.46484375 99 C4.49802376 96.99932654 4.53251405 94.99867435 4.56835938 92.99804688 C4.65320659 88.10298116 4.72005541 83.20796267 4.77734375 78.3125 C8.63065886 77.82631911 12.48497915 77.34873629 16.33984375 76.875 C17.47977783 76.73449219 18.61971191 76.59398437 19.79418945 76.44921875 C27.13563451 75.56660084 34.39530407 74.92726963 41.7890625 74.71875 C46.37728578 74.09499154 49.68376548 72.26218639 53.15234375 69.25 C55.51820533 64.97325022 55.71110551 61.09116313 54.77734375 56.3125 C52.58711457 53.48825712 50.94717168 51.89741397 47.77734375 50.3125 C44.84902353 50.18295497 41.95639176 50.12278018 39.02734375 50.125 C38.15368164 50.12435547 37.28001953 50.12371094 36.37988281 50.12304688 C26.12159002 50.20293446 15.97155791 51.25428744 5.77734375 52.3125 C5.80352783 51.10190918 5.82971191 49.89131836 5.85668945 48.64404297 C5.94742413 44.13788449 6.00467746 39.63180621 6.05200195 35.125 C6.07709321 33.17727057 6.11117436 31.2296348 6.15454102 29.28222656 C6.21543124 26.4769781 6.24360706 23.67297792 6.265625 20.8671875 C6.29143143 20.00133026 6.31723785 19.13547302 6.34382629 18.24337769 C6.34579957 13.95672903 6.13035548 11.19131295 3.36401367 7.80126953 C-0.11313835 4.4557209 -1.78155359 3.53002493 -6.53515625 2.8125 C-11.44704469 3.47851877 -13.93159498 5.72394167 -17.22265625 9.3125 Z " fill="#0F0C0D" transform="translate(225.22265625,93.6875)"/>
</svg>
